<svg xmlns="http://www.w3.org/2000/svg" xmlns:xlink="http://www.w3.org/1999/xlink" xmlns:v="http://vecta.io" width="862" height="342" viewBox="-0.5 -0.5 862 342"><style><![CDATA[svg {stroke:#000;stroke-linecap:round;stroke-linejoin:round;fill:#fff;fill-rule:evenodd;font-family:Roboto;font-size:14px;text-anchor:middle} svg text {stroke:none}]]></style><defs><linearGradient id="L10010000057c7ff1008ad8ff.grad" x1="100%" y1="100%" x2="0%" y2="0%"><stop offset="0%" stop-color="#57c7ff"/><stop offset="100%" stop-color="#8ad8ff"/></linearGradient><linearGradient id="L100100000ffe357100ffeb8a.grad" x1="100%" y1="100%" x2="0%" y2="0%"><stop offset="0%" stop-color="#ffe357"/><stop offset="100%" stop-color="#ffeb8a"/></linearGradient><g id="thin.end"><path d="M 0 0 L 3 10 L -3 10 z" stroke="none"/></g></defs><g transform="translate(0 150)"><rect fill="url(#L10010000057c7ff1008ad8ff.grad)" height="40" stroke="url(#L10010000057c7ff1008ad8ff.grad)" width="85" x="0" y="0"/><g><text fill="#000000" fill-opacity="1" font-weight="bold"><tspan x="42.5" y="25.6">Promise</tspan></text></g></g><g transform="translate(230 90)"><rect height="40" stroke="url(#L100100000ffe357100ffeb8a.grad)" width="150" x="0" y="0" fill="url(#L100100000ffe357100ffeb8a.grad)"/><g><text fill="#000000" fill-opacity="1"><tspan x="75" y="25.6">.then(onFulfillment)</tspan></text></g></g><g transform="translate(230 210)"><rect fill="url(#L100100000ffe357100ffeb8a.grad)" height="40" stroke="url(#L100100000ffe357100ffeb8a.grad)" width="150" x="0" y="0"/><g><text fill="#000000" fill-opacity="1"><tspan x="75" y="17.2">.then(onRejection)</tspan><tspan x="75" y="34">.catch(onRejection)</tspan></text></g></g><g transform="translate(360 0)"><rect fill="url(#L100100000ffe357100ffeb8a.grad)" height="40" stroke="url(#L100100000ffe357100ffeb8a.grad)" width="150" x="0" y="0"/><g><text fill="#000000" fill-opacity="1"><tspan x="75" y="25.6">async actions</tspan></text></g></g><g transform="translate(360 300)"><rect fill="url(#L100100000ffe357100ffeb8a.grad)" height="40" stroke="url(#L100100000ffe357100ffeb8a.grad)" width="150" x="0" y="0"/><g><text fill="#000000" fill-opacity="1"><tspan x="75" y="25.6">error handling</tspan></text></g></g><g transform="translate(560 150)"><rect fill="url(#L10010000057c7ff1008ad8ff.grad)" height="40" stroke="url(#L10010000057c7ff1008ad8ff.grad)" width="85" x="0" y="0"/><g><text fill="#000000" fill-opacity="1" font-weight="bold"><tspan x="42.5" y="25.6">Promise</tspan></text></g></g><g transform="translate(710 150)"><rect fill="url(#L100100000ffe357100ffeb8a.grad)" height="40" stroke="url(#L100100000ffe357100ffeb8a.grad)" width="150" x="0" y="0"/><g><text fill="#000000" fill-opacity="1"><tspan x="75" y="17.2">.then()</tspan><tspan x="75" y="34">.catch()</tspan></text></g></g><g transform="translate(85 110)"><path fill="none" d="M 0 60 L 55 60 L 55 0 L 135 0"/><use class="EndArrow.cls" fill="#000000" x="145" y="0" xlink:href="#thin.end" transform="scale(1) rotate(90 145 0)"/><g transform="translate(17.5 -45)"><text fill="#000000" fill-opacity="1"><tspan x="75" y="35.6">fulfill</tspan></text></g></g><g transform="translate(85 170)"><path fill="none" d="M 1e-13 1e-13 L 55 0 L 55 60 L 135 60"/><use class="EndArrow.cls" fill="#000000" x="145" y="60" xlink:href="#thin.end" transform="scale(1) rotate(90 145 60)"/><g transform="translate(20 45)"><text fill="#000000" fill-opacity="1"><tspan x="75" y="35.6">reject</tspan></text></g></g><g transform="translate(320 20)"><path fill="none" d="M 0 70 L 0 0 L 30 0"/><use class="EndArrow.cls" fill="#000000" x="40" y="0" xlink:href="#thin.end" transform="scale(1) rotate(90 40 0)"/></g><g transform="translate(320 250)"><path fill="none" d="M 1e-13 1e-13 L 0 70 L 30 70"/><use class="EndArrow.cls" fill="#000000" x="40" y="70" xlink:href="#thin.end" transform="scale(1) rotate(90 40 70)"/></g><g transform="translate(380 110)"><path fill="none" d="M 1e-13 1e-13 L 70 0 L 70 60 L 170 60"/><use class="EndArrow.cls" fill="#000000" x="180" y="60" xlink:href="#thin.end" transform="scale(1) rotate(90 180 60)"/><g transform="translate(40 15)"><text fill="#000000" fill-opacity="1"><tspan x="87.5" y="35.6">return</tspan></text></g></g><g transform="translate(380 170)"><path fill="none" d="M 0 60 L 70 60 L 70 0 L 170 0"/><use class="EndArrow.cls" fill="#000000" x="180" y="0" xlink:href="#thin.end" transform="scale(1) rotate(90 180 0)"/></g><g transform="translate(645 170)"><path fill="none" d="M 1e-13 1e-13 L 32.5 0 L 32.5 0 L 55 0"/><use class="EndArrow.cls" fill="#000000" x="65" y="0" xlink:href="#thin.end" transform="scale(1) rotate(90 65 0)"/></g><g transform="translate(560 115)"><g><text fill="#000000" fill-opacity="1"><tspan x="42.5" y="20.6">pending</tspan></text></g></g><g transform="translate(230 60)"><g><text fill="#000000" fill-opacity="1"><tspan x="37.5" y="18.1">settled</tspan></text></g></g><g transform="translate(0 115)"><g><text fill="#000000" fill-opacity="1"><tspan x="42.5" y="20.6">pending</tspan></text></g></g></svg>